<svg width="32" height="34" viewBox="0 0 32 34" fill="none" xmlns="http://www.w3.org/2000/svg">
<path d="M16.6804 29.1778C16.6804 26.8758 18.5466 25.0096 20.8487 25.0096C23.1507 25.0096 25.0169 26.8758 25.0169 29.1778C25.0169 31.4799 23.1507 33.3461 20.8487 33.3461C18.5466 33.3461 16.6804 31.4799 16.6804 29.1778Z" fill="#46B4A9"/>
<path d="M23.3496 21.6749C23.3496 19.3729 25.2158 17.5067 27.5178 17.5067C29.8199 17.5067 31.6861 19.3729 31.6861 21.6749C31.6861 23.977 29.8199 25.8432 27.5178 25.8432C25.2158 25.8432 23.3496 23.977 23.3496 21.6749Z" fill="#46B4A9"/>
<path d="M23.3496 11.6711C23.3496 9.36907 25.2158 7.50288 27.5178 7.50288C29.8199 7.50288 31.6861 9.36907 31.6861 11.6711C31.6861 13.9732 29.8199 15.8394 27.5178 15.8394C25.2158 15.8394 23.3496 13.9732 23.3496 11.6711Z" fill="#46B4A9"/>
<path d="M16.6804 4.16826C16.6804 1.8662 18.5466 7.17261e-06 20.8487 7.17261e-06C23.1507 7.17261e-06 25.0169 1.8662 25.0169 4.16826C25.0169 6.47033 23.1507 8.33652 20.8487 8.33652C18.5466 8.33652 16.6804 6.47033 16.6804 4.16826Z" fill="#46B4A9"/>
<path d="M11.9119 7.76959C13.6125 9.22014 15.0631 10.4373 16.7637 11.9045C17.6641 12.6715 18.5644 13.6552 18.9646 14.8223C19.0313 15.0057 19.0813 15.1891 19.1146 15.3725C19.1813 15.7893 19.1813 16.2395 19.1813 16.673C19.1813 17.1065 19.1813 17.5566 19.098 17.9901C19.0646 18.1736 19.0146 18.357 18.9479 18.5404C18.5478 19.7075 17.6474 20.6745 16.7471 21.4581C15.0464 22.9087 13.5959 24.1258 11.8952 25.593C9.71106 27.7772 7.29347 30.4616 3.90885 29.9614C2.2082 29.4779 0.524225 28.2607 0.0407075 26.0766C-0.209388 24.8594 0.774318 20.9746 0.774318 16.8397V16.5396C0.774318 12.4047 -0.192715 8.51987 0.0407075 7.30274C0.524225 5.11858 2.22487 3.90145 3.90885 3.41793C7.31014 2.90106 9.72773 5.58542 11.9119 7.76959V7.76959Z" fill="#46B4A9"/>
</svg>
